<?xml version="1.0" encoding="UTF-8" standalone="no"?>
<svg
   viewBox="4.41 5.435 4157.76 4801.305"
   version="1.1"
   id="svg28"
   sodipodi:docname="tapLock.svg"
   inkscape:version="1.1.2 (0a00cf5339, 2022-02-04)"
   xml:space="preserve"
   xmlns:inkscape="http://www.inkscape.org/namespaces/inkscape"
   xmlns:sodipodi="http://sodipodi.sourceforge.net/DTD/sodipodi-0.dtd"
   xmlns:xlink="http://www.w3.org/1999/xlink"
   xmlns="http://www.w3.org/2000/svg"
   xmlns:svg="http://www.w3.org/2000/svg"><sodipodi:namedview
     id="namedview28"
     pagecolor="#ffffff"
     bordercolor="#000000"
     borderopacity="0.25"
     inkscape:showpageshadow="2"
     inkscape:pageopacity="0.0"
     inkscape:pagecheckerboard="0"
     inkscape:deskcolor="#d1d1d1"
     showgrid="false"
     inkscape:zoom="0.18370005"
     inkscape:cx="1336.4177"
     inkscape:cy="2588.4588"
     inkscape:window-width="1920"
     inkscape:window-height="1062"
     inkscape:window-x="0"
     inkscape:window-y="0"
     inkscape:window-maximized="1"
     inkscape:current-layer="layer1"
     inkscape:pageshadow="2" /><defs
     id="defs1"><linearGradient
       inkscape:collect="always"
       id="linearGradient23338"><stop
         style="stop-color:#00c4bc;stop-opacity:1"
         offset="0"
         id="stop23334" /><stop
         style="stop-color:#0095e2;stop-opacity:1"
         offset="1"
         id="stop23336" /></linearGradient><linearGradient
       inkscape:collect="always"
       id="linearGradient13470"><stop
         style="stop-color:#000000;stop-opacity:1;"
         offset="0"
         id="stop13466" /><stop
         style="stop-color:#000000;stop-opacity:0;"
         offset="1"
         id="stop13468" /></linearGradient><style
       id="style1">.cls-1,.cls-11,.cls-4,.cls-6,.cls-7,.cls-8,.cls-9{fill:none;stroke-miterlimit:10;}.cls-1{stroke:#008272;stroke-width:130px;}.cls-2{clip-path:url(#clip-path);}.cls-3{fill:#212121;}.cls-4{stroke:blue;stroke-width:450px;}.cls-5{fill:#353535;}.cls-6,.cls-7,.cls-8{stroke:#494949;}.cls-6{stroke-width:350px;}.cls-7{stroke-width:300px;}.cls-8{stroke-width:160px;}.cls-9{stroke:#00ffa3;}.cls-11,.cls-9{stroke-width:90px;}.cls-10{fill:#008471;}.cls-11{stroke:#3effa3;}.cls-12{fill:#00ffa3;}</style><clipPath
       id="clip-path"><path
         class="cls-1"
         d="M4092.76,3564.81V1241.93L2081.09,80.49,1056.93,671.79,69.41,1241.93V3564.81L2081.09,4726.25Z"
         id="path1" /></clipPath><linearGradient
       inkscape:collect="always"
       xlink:href="#linearGradient13470"
       id="linearGradient13472"
       x1="777.3635"
       y1="386.12991"
       x2="3101.157"
       y2="386.12991"
       gradientUnits="userSpaceOnUse"
       gradientTransform="translate(213.99452,813.68313)" /><linearGradient
       inkscape:collect="always"
       xlink:href="#linearGradient23338"
       id="linearGradient16686"
       x1="991.35797"
       y1="1199.8131"
       x2="3315.1516"
       y2="1199.8131"
       gradientUnits="userSpaceOnUse"
       gradientTransform="translate(-69.964908,132.92968)" /></defs><g
     inkscape:groupmode="layer"
     id="layer2"
     inkscape:label="Hex"><g
       id="Layer_2"
       data-name="Layer 2"><g
         class="cls-2"
         clip-path="url(#clip-path)"
         id="g18"><rect
           class="cls-3"
           x="1820.26"
           y="2198.49"
           width="5000"
           height="5000"
           transform="translate(-2241.71 -2295.12)"
           id="rect1"
           style="fill:#cdedeb;fill-opacity:1" /><path
           class="cls-4"
           d="M-1066.6,1173.89"
           id="path2" /></g><g
         inkscape:groupmode="layer"
         id="layer4"
         inkscape:label="Background pipes" /><path
         class="cls-1"
         d="M4092.76,3564.81V1241.93L2081.09,80.49,1056.93,671.79,69.41,1241.93V3564.81L2081.09,4726.25Z"
         id="path18"
         style="stroke:#001220;stroke-opacity:1" /></g></g><g
     inkscape:groupmode="layer"
     id="layer1"
     inkscape:label="Valve"><g
       id="g2237"
       transform="translate(49.864089,98.892211)"><g
         id="g2065"><g
           id="g1136"
           transform="matrix(16.445352,0,0,16.445352,243.29532,1083.0238)"><path
             style="fill:#0199bb;stroke-width:0.046994"
             d="m 33.487459,150.21637 c -1.023494,-0.1012 -1.773416,-0.74737 -2.030797,-1.74984 -0.107697,-0.41947 -0.131536,-3.0071 -0.081,-8.79249 0.04645,-5.31804 0.0417,-5.22158 0.281521,-5.71365 0.156659,-0.32144 0.501153,-0.72964 0.727911,-0.86253 0.450601,-0.26407 0.749722,-0.30002 2.799654,-0.33649 1.033993,-0.0184 1.9057,-0.0493 1.937126,-0.0688 0.04419,-0.0273 0.06505,-1.63111 0.09207,-7.07708 0.03311,-6.67318 0.0399,-7.0799 0.129681,-7.77018 0.304278,-2.33932 0.715222,-4.00222 1.544579,-6.2502 1.096582,-2.97229 2.758023,-5.78224 5.056108,-8.55125 1.76954,-2.13215 4.1588,-4.315213 6.260796,-5.720474 2.020637,-1.350869 4.904315,-2.759711 6.99311,-3.416531 2.389587,-0.75141 4.521759,-1.169196 6.617408,-1.296653 0.465898,-0.02833 4.481255,-0.04697 10.174423,-0.04723 7.773563,-4.7e-4 9.413793,-0.01127 9.456722,-0.063 0.03723,-0.04486 0.05549,-1.897903 0.0645,-6.543909 l 0.01256,-6.481333 0.109383,-0.303054 c 0.06016,-0.166683 0.217874,-0.459991 0.350472,-0.651802 0.286865,-0.414971 0.73405,-0.753915 1.205038,-0.913365 0.305324,-0.103364 0.344926,-0.104717 3.464987,-0.118651 2.495299,-0.01114 3.166599,-0.0267 3.206116,-0.07432 0.03427,-0.0413 0.05406,-1.380974 0.06295,-4.262841 l 0.01297,-4.202619 0.106813,-0.264068 c 0.248899,-0.615344 0.720276,-1.055015 1.366453,-1.274547 l 0.312505,-0.106174 3.685553,-0.01286 c 2.59113,-0.009 3.704029,-0.0282 3.747769,-0.0645 0.0469,-0.03889 0.0622,-0.23637 0.0622,-0.800025 0,-0.879347 0.081,-0.741809 -0.81702,-1.386961 -1.060116,-0.76158 -2.169206,-1.775353 -3.123033,-2.854632 -0.249632,-0.282464 -0.520101,-0.588137 -0.601039,-0.679274 l -0.147157,-0.165703 -0.863213,0.05923 c -0.938573,0.0644 -3.971531,0.363208 -5.586102,0.550346 -1.02523,0.118829 -1.255185,0.144167 -3.595038,0.396121 -0.723707,0.07793 -1.485009,0.162384 -1.691783,0.187681 -0.206773,0.0253 -0.89406,0.09973 -1.527304,0.165405 -0.633243,0.06567 -1.352251,0.140662 -1.597794,0.166636 -2.811941,0.297471 -4.688898,0.391614 -5.590144,0.280389 -3.03761,-0.374871 -5.40134,-1.826605 -7.274623,-4.467855 -1.626799,-2.293718 -2.30715,-5.06635 -1.939074,-7.902326 0.294929,-2.272375 1.202693,-4.18912 2.803199,-5.918933 1.845871,-1.995006 3.779382,-2.985543 6.549342,-3.355226 0.641129,-0.08557 1.918185,-0.08394 2.749147,0.0035 2.689694,0.283013 8.695325,0.827556 11.654502,1.056738 1.113489,0.08624 5.059117,0.448762 5.950089,0.546696 0.145099,0.01595 0.29625,0.01048 0.33589,-0.01216 0.03963,-0.02264 0.277349,-0.27378 0.528254,-0.558093 1.340747,-1.519276 2.252322,-2.283206 3.783861,-3.170997 1.6258,-0.94243 3.23933,-1.520588 5.17172,-1.853121 2.20675,-0.379747 4.16861,-0.259187 6.48183,0.398326 1.53553,0.436462 2.65372,0.96473 4.10911,1.941279 1.06397,0.713915 1.55246,1.125597 2.67369,2.2533 l 1.02603,1.031962 0.54826,-0.0314 c 0.30155,-0.01727 0.88662,-0.06182 1.30017,-0.099 0.41354,-0.03718 1.23829,-0.110757 1.83276,-0.163507 2.15391,-0.191125 5.3578,-0.506118 8.12996,-0.799303 0.7237,-0.07654 1.54845,-0.161796 1.83276,-0.189458 0.28431,-0.02766 0.89759,-0.09102 1.36283,-0.140787 0.46524,-0.04977 1.15252,-0.122958 1.5273,-0.162638 3.29835,-0.349214 5.19991,-0.0997 7.36738,0.966722 2.21595,1.090274 3.99145,2.95613 5.03839,5.294809 0.55638,1.242862 0.7886,2.285576 0.91812,4.122611 0.0369,0.52387 -0.0483,1.801166 -0.16615,2.49068 -0.20921,1.223676 -0.82375,2.770617 -1.51483,3.813173 -1.66326,2.509193 -3.85547,4.09445 -6.42658,4.647277 -1.48748,0.319827 -2.96954,0.402217 -4.27645,0.237729 -1.35788,-0.170903 -1.75424,-0.217061 -2.86663,-0.333855 -0.63325,-0.06649 -1.62717,-0.172679 -2.20872,-0.235985 -3.02803,-0.329622 -3.62415,-0.393201 -3.94749,-0.421015 -0.61613,-0.053 -2.64868,-0.257065 -2.81964,-0.283086 -0.0905,-0.01377 -0.67201,-0.07648 -1.29233,-0.139359 -0.62032,-0.06288 -1.5508,-0.15773 -2.06774,-0.210782 -0.51693,-0.05305 -1.14461,-0.109897 -1.39483,-0.126324 l -0.45495,-0.02987 -0.13247,0.137221 c -0.0729,0.07547 -0.38121,0.425346 -0.68523,0.777498 -1.00611,1.165408 -2.05031,2.094328 -3.27725,2.915444 -0.34893,0.233518 -0.65306,0.456772 -0.67583,0.496125 -0.0228,0.03935 -0.0312,0.388932 -0.0188,0.776853 0.0197,0.614864 0.0337,0.713415 0.10914,0.768553 0.0706,0.05166 0.72604,0.06325 3.57625,0.06325 2.36617,0 3.56994,0.01672 3.73879,0.05193 0.31546,0.06579 0.76053,0.275972 0.99188,0.468431 0.29397,0.244538 0.63498,0.735052 0.74619,1.07331 0.10006,0.304366 0.10234,0.378231 0.13524,4.382262 0.0184,2.239977 0.0455,4.092211 0.0603,4.116079 0.0156,0.02524 1.28119,0.05704 3.02463,0.07601 3.20952,0.03491 3.39404,0.04836 3.85265,0.280756 0.54825,0.277819 0.98772,0.748868 1.20811,1.294924 0.27178,0.673381 0.26326,0.440794 0.26326,7.189527 0,5.493726 0.008,6.210008 0.0716,6.273454 0.0636,0.06362 1.18172,0.07345 9.99797,0.08791 10.88141,0.01785 10.06104,-0.0025 11.92359,0.296339 1.15364,0.185124 2.13003,0.421264 3.79461,0.917703 2.9137,0.86898 6.26559,2.541392 8.57525,4.278585 2.38245,1.791936 3.65264,2.986672 5.42853,5.106062 1.62588,1.94035 3.17116,4.43999 4.26747,6.90306 0.92859,2.08624 1.90493,5.30735 2.14124,7.06426 0.1992,1.48103 0.19553,1.33493 0.21521,8.55071 0.0132,4.85141 0.0341,6.94768 0.0695,6.99035 0.0395,0.0477 0.40533,0.0617 1.67786,0.0643 2.11105,0.004 2.3461,0.0252 2.79663,0.24783 0.56034,0.27693 0.93835,0.74527 1.18588,1.46927 0.12582,0.36799 0.1271,0.38496 0.16959,2.25055 0.0236,1.03386 0.0296,4.07646 0.0135,6.76131 l -0.0293,4.88155 -0.12224,0.31128 c -0.3022,0.76948 -0.92011,1.34629 -1.61337,1.50605 -0.1414,0.0326 -6.15148,0.0487 -18.49202,0.0494 -19.81976,0.001 -18.47231,0.018 -19.04881,-0.237 -0.54169,-0.23962 -1.08168,-0.84856 -1.28513,-1.44923 l -0.10495,-0.30986 -0.0122,-6.2502 c -0.008,-3.88636 0.006,-6.43856 0.0346,-6.74824 0.0257,-0.27393 0.0904,-0.63069 0.14358,-0.79281 0.23577,-0.71817 0.76521,-1.26755 1.45578,-1.51057 0.29584,-0.10411 0.36923,-0.10772 2.97933,-0.14653 1.56241,-0.0232 2.69848,-0.0584 2.72997,-0.0846 0.0697,-0.0579 0.0885,-8.10614 0.0197,-8.46859 -0.067,-0.35351 -0.25789,-0.73675 -0.48197,-0.96781 -0.21753,-0.22432 -0.31885,-0.28635 -0.66728,-0.40859 -0.22117,-0.0776 -0.74681,-0.0818 -8.94759,-0.0717 -4.79193,0.006 -8.74119,0.0217 -8.77612,0.0351 -0.0523,0.02 -0.0635,0.47725 -0.0635,2.58417 0,1.41712 -0.0223,2.81515 -0.0499,3.13182 -0.21247,2.43354 -1.08064,5.33725 -2.36994,7.92657 -1.24162,2.49357 -2.52027,4.28044 -4.42807,6.18811 -1.70369,1.70358 -3.21983,2.89468 -5.29998,4.16372 -2.03814,1.24341 -5.13824,2.39531 -7.91849,2.94225 -2.27794,0.44813 -4.90495,0.61647 -7.04909,0.45171 -4.37307,-0.33602 -8.181312,-1.54293 -11.867354,-3.76101 -2.277281,-1.37035 -3.967418,-2.79146 -5.78296,-4.86244 -1.124546,-1.28276 -2.350271,-3.09371 -3.19393,-4.71888 -1.088183,-2.0962 -1.987502,-4.68471 -2.323377,-6.68737 -0.212441,-1.26668 -0.234411,-1.69079 -0.235642,-4.5482 -6.58e-4,-1.49911 -0.01762,-2.75154 -0.03773,-2.78319 -0.0286,-0.045 -1.930131,-0.0593 -8.728409,-0.0657 -7.727471,-0.007 -8.71308,0 -8.883175,0.0642 -0.590112,0.22334 -0.937637,0.51098 -1.178458,0.97539 l -0.134027,0.25847 -0.0127,4.28165 c -0.01055,3.55579 -0.0019,4.29061 0.05095,4.33448 0.04441,0.0369 0.822794,0.0613 2.573878,0.0809 1.380622,0.0154 2.624293,0.0473 2.763715,0.0709 0.512558,0.0865 1.115364,0.45595 1.407347,0.86252 0.210655,0.29333 0.406845,0.70289 0.508508,1.06151 0.08221,0.29 0.0858,0.61825 0.07459,6.8227 l -0.01176,6.51804 -0.116338,0.36657 c -0.133303,0.42004 -0.338121,0.74603 -0.666416,1.06065 -0.491825,0.47135 -0.847941,0.64026 -1.425929,0.67634 -0.56014,0.035 -35.892038,0.0428 -36.243641,0.008 z m 32.239102,-10.3426 c 0.02746,-0.0333 0.05541,-0.40039 0.0645,-0.84737 0.01344,-0.66093 0.0047,-0.79637 -0.05445,-0.83649 -0.109984,-0.0747 -27.843746,-0.0279 -28.039879,0.0473 -0.08193,0.0314 -0.163406,0.0926 -0.181059,0.13606 -0.01765,0.0434 -0.04341,0.35685 -0.05723,0.6965 -0.02435,0.59841 -0.02197,0.61925 0.07695,0.6722 0.07158,0.0383 0.968638,0.0683 3.002334,0.10042 4.008576,0.0633 4.650425,0.0666 15.524122,0.0791 7.646648,0.009 9.626184,-9.9e-4 9.664709,-0.0477 z m 111.620709,-0.0337 c 2.35484,-0.0519 2.70971,-0.0691 2.7609,-0.1335 0.0857,-0.10788 0.0825,-1.43461 -0.004,-1.50609 -0.0969,-0.0805 -28.24591,-0.0759 -28.30946,0.005 -0.0702,0.0889 -0.11954,1.52123 -0.0565,1.63902 l 0.0514,0.096 11.42762,-0.0202 c 7.10866,-0.0126 12.44886,-0.0427 14.12976,-0.0798 z m -62.61893,-5.15459 c 0.0536,-0.0537 0.0695,-0.12278 0.0512,-0.22322 -0.0546,-0.29976 -0.30971,-2.14837 -0.40264,-2.91814 -0.0531,-0.4394 -0.15986,-1.25357 -0.23736,-1.80927 -0.0775,-0.5557 -0.17119,-1.25356 -0.20819,-1.5508 -0.037,-0.29724 -0.12222,-0.89993 -0.18937,-1.33933 -0.0671,-0.43939 -0.15184,-1.04209 -0.1882,-1.33933 -0.0364,-0.29723 -0.13133,-0.9528 -0.21103,-1.45681 -0.1581,-0.99965 -0.56911,-3.85506 -0.68164,-4.73547 -0.0388,-0.30324 -0.10202,-0.75225 -0.14058,-0.99779 -0.0386,-0.24555 -0.0842,-0.67297 -0.10146,-0.94983 l -0.0314,-0.50337 0.1546,-0.084 c 0.37788,-0.20543 1.13991,-0.73305 1.52773,-1.05778 0.36839,-0.30847 0.85626,-0.84593 1.44096,-1.58744 0.59552,-0.75523 1.15056,-2.18709 1.33674,-3.44844 0.0908,-0.61513 0.0659,-1.95142 -0.0466,-2.49985 -0.4351,-2.12102 -1.71678,-3.9911 -3.54622,-5.17422 -1.44323,-0.93335 -2.91541,-1.37788 -4.56327,-1.37788 -2.147,0 -3.96776,0.75672 -5.58825,2.32252 -0.63353,0.61214 -0.96965,1.05114 -1.40609,1.83645 -0.44824,0.80652 -0.77307,1.76288 -0.95603,2.81473 -0.12525,0.72006 -0.10358,1.86234 0.0485,2.55466 0.21286,0.96925 0.7708,2.30696 1.18677,2.84539 1.07448,1.39082 1.8952,2.14278 2.86262,2.62277 0.30079,0.14923 0.31987,0.19099 0.23372,0.51149 -0.0243,0.0905 -0.0659,0.3548 -0.0925,0.58742 -0.0266,0.23262 -0.0909,0.75073 -0.14311,1.15135 -0.0522,0.40063 -0.12698,1.00333 -0.16625,1.33933 -0.14434,1.2348 -0.21739,1.78964 -0.25677,1.95025 -0.0222,0.0905 -0.0544,0.31251 -0.0716,0.49344 -0.0479,0.50331 -0.42958,3.31748 -0.53583,3.95027 -0.17758,1.05766 -0.6997,5.21089 -0.97476,7.75369 -0.0188,0.17387 -0.008,0.25245 0.0419,0.29351 0.0512,0.0425 1.33178,0.059 5.30282,0.0682 2.87939,0.007 5.51395,0.0174 5.85457,0.0237 0.52373,0.01 0.63131,-4.7e-4 0.69704,-0.0662 z m -67.921902,-12.5097 c 0.307537,-0.01 0.36756,-0.0857 0.36756,-0.4647 0,-0.7379 0.264317,-2.16108 0.639401,-3.44279 0.510834,-1.74557 0.836008,-2.56004 1.647744,-4.1271 0.997859,-1.92636 1.662923,-2.88775 3.045038,-4.40175 1.190779,-1.30441 2.447168,-2.40206 3.855137,-3.36804 1.10592,-0.75875 2.832359,-1.64373 4.229456,-2.16803 1.464328,-0.54954 2.052123,-0.70791 3.73602,-1.00655 l 0.728407,-0.12919 9.208702,-0.0244 9.208702,-0.0244 0.03267,-0.11748 c 0.04651,-0.16722 0.04853,-3.958507 0.0022,-4.031611 -0.03126,-0.04927 -1.872563,-0.05745 -9.832767,-0.04368 -8.826867,0.01527 -9.851237,0.02469 -10.370661,0.09541 -1.350348,0.183855 -2.241391,0.394073 -3.558049,0.83943 -2.797061,0.946091 -5.591557,2.514961 -7.966543,4.472521 -0.510795,0.42102 -2.315658,2.22746 -2.777471,2.7799 -1.672644,2.00088 -3.521965,5.07076 -4.260601,7.07259 -0.593332,1.60804 -1.034378,3.40971 -1.16384,4.75429 -0.07406,0.76919 -0.150911,3.16997 -0.105278,3.28887 0.01974,0.0514 0.314005,0.0624 1.569326,0.0585 0.849767,-0.003 1.64397,-0.008 1.764895,-0.0117 z m 116.818602,-15.1667 c 0.5576,-0.2682 0.87355,-0.56979 1.13303,-1.08153 l 0.20629,-0.40687 v -0.5496 -0.5496 l -0.19695,-0.3959 c -0.26749,-0.53768 -0.76791,-1.11995 -1.2774,-1.48635 -1.22774,-0.88293 -3.31479,-1.89918 -5.50425,-2.680183 -1.08998,-0.38881 -2.47303,-0.720906 -3.80651,-0.914009 l -0.72841,-0.105483 -9.65076,-0.01478 c -7.23352,-0.01108 -9.6671,-0.0012 -9.716,0.03937 -0.0518,0.04298 -0.0662,0.268552 -0.0699,1.094006 -0.003,0.571919 -0.0194,1.473379 -0.0374,2.003239 -0.018,0.52985 -0.0244,0.98926 -0.0143,1.02089 0.0145,0.045 2.04346,0.0607 9.35396,0.0721 l 9.33549,0.0146 0.60737,0.10437 c 2.41591,0.41511 4.96398,1.441 7.05264,2.83948 0.51694,0.34611 1.05619,0.71156 1.19835,0.81212 0.57033,0.40341 0.57615,0.40534 1.17485,0.39005 0.52326,-0.0134 0.55312,-0.0199 0.93988,-0.20594 z m -69.436534,-5.8484 c 0.303318,-0.15122 0.571954,-0.42902 0.725352,-0.75009 l 0.123491,-0.25847 0.02359,-5.310318 c 0.01333,-2.999907 0.0057,-5.335874 -0.0175,-5.369061 -0.03148,-0.045 -0.407381,-0.05874 -1.606282,-0.05874 -1.359511,0 -1.57488,0.0097 -1.638956,0.07377 -0.06637,0.06637 -0.07177,0.584384 -0.05389,5.162903 0.01444,3.698688 0.03498,5.145247 0.07517,5.294505 0.14421,0.535551 0.623967,1.129611 1.032885,1.278971 0.329827,0.12048 1.034323,0.087 1.336141,-0.0635 z M 118.5293,77.497185 c 0.0157,-0.04089 0.0285,-1.032542 0.0285,-2.203688 0,-1.939291 -0.007,-2.132023 -0.0779,-2.159241 -0.11764,-0.04514 -18.743782,-0.08606 -19.09565,-0.04196 l -0.30546,0.03829 -0.0113,2.114728 c -0.0062,1.163101 0.0069,2.143273 0.02917,2.178166 0.02226,0.03489 0.111935,0.0803 0.199278,0.100924 0.08734,0.02062 4.444152,0.03965 9.681802,0.0423 8.64319,0.0044 9.52563,-0.0021 9.55152,-0.06952 z M 100.38796,55.316384 c 0.0538,-0.371927 0.29995,-1.316896 0.38669,-1.484624 0.0381,-0.07376 0.10817,-0.258843 0.15562,-0.411296 0.0475,-0.152451 0.13475,-0.345264 0.194,-0.428473 0.0732,-0.102802 0.10542,-0.210115 0.10053,-0.334849 -0.005,-0.126272 0.0152,-0.192166 0.0647,-0.211132 0.0913,-0.03502 0.30484,-0.352765 0.42159,-0.627183 0.10741,-0.252491 0.26439,-0.50622 0.50417,-0.814866 0.0972,-0.125093 0.17669,-0.254346 0.17669,-0.287231 0,-0.158258 1.10039,-1.358087 1.66829,-1.819046 0.91323,-0.741261 1.60447,-1.089406 3.02421,-1.523143 0.75792,-0.23155 1.20086,-0.301965 1.89992,-0.30204 0.86648,-9.4e-5 1.0016,0.07185 1.47312,0.784387 0.74287,1.122584 1.83015,1.508156 2.87155,1.018316 0.81792,-0.384719 1.33025,-1.488768 1.14704,-2.471809 -0.17568,-0.942611 -0.95478,-1.77509 -2.13062,-2.276615 -2.04703,-0.873106 -4.1737,-0.989819 -6.26319,-0.343728 -1.40586,0.434709 -2.47063,1.054584 -3.47073,2.020547 -1.07802,1.041233 -1.89145,2.369907 -2.4568,4.012961 -0.401845,1.167879 -0.531684,3.144466 -0.274543,4.179534 0.03744,0.150705 0.06807,0.353986 0.06807,0.451735 0,0.182212 0.153553,0.879554 0.236813,1.075464 0.0754,0.177455 0.15976,0.09146 0.20293,-0.206909 z m -6.409629,-4.434347 c 0.02676,-0.04999 0.04865,-0.143749 0.04865,-0.208344 0,-0.230662 0.241929,-1.425813 0.40052,-1.978619 0.08877,-0.30942 0.144384,-0.579598 0.123585,-0.600395 -0.06455,-0.06455 -17.055712,-0.103383 -17.288943,-0.03951 -0.16422,0.04497 -0.241065,0.109571 -0.434859,0.365562 -0.311414,0.411372 -0.456165,0.866175 -0.376882,1.184165 0.104064,0.417374 0.473582,0.895943 0.833039,1.078873 0.446677,0.227319 0.05527,0.216256 8.56659,0.242122 4.406859,0.01339 8.027589,0.02946 8.046062,0.0357 0.01848,0.0062 0.05549,-0.02955 0.08224,-0.07955 z m 45.855179,-0.04074 c 0.10938,-0.03104 0.31028,-0.128332 0.44644,-0.216202 0.55232,-0.356445 0.76305,-0.72399 0.75708,-1.320449 -0.002,-0.228655 -0.0328,-0.44489 -0.0779,-0.551904 -0.0958,-0.227341 -0.49037,-0.621482 -0.6688,-0.668072 -0.0763,-0.01993 -3.97822,-0.04615 -8.67087,-0.05828 -7.07784,-0.01828 -8.5407,-0.01135 -8.58254,0.04068 -0.0368,0.04578 -0.0205,0.164247 0.0604,0.438674 0.13952,0.473126 0.32165,1.276137 0.42102,1.856262 0.042,0.245543 0.0988,0.473514 0.12606,0.506603 0.07,0.08487 15.88779,0.05818 16.18908,-0.02732 z"
             id="path1140" /><path
             style="fill:#001020;stroke-width:0.046994"
             d="m 33.522252,150.17296 c -1.029544,-0.10125 -1.736546,-0.70666 -2.028888,-1.73736 -0.08157,-0.28759 -0.08514,-0.62629 -0.07181,-6.81131 0.01335,-6.19347 0.02734,-6.87283 0.151006,-7.33285 0.05812,-0.2162 0.354819,-0.70242 0.561913,-0.92085 0.209039,-0.22048 0.630829,-0.41934 1.028236,-0.48478 0.171902,-0.0283 1.140843,-0.0669 2.153201,-0.0857 1.012357,-0.0188 1.856141,-0.0497 1.875073,-0.0687 0.01893,-0.019 0.05035,-3.21221 0.06982,-7.09609 0.03352,-6.68664 0.04042,-7.1003 0.12998,-7.79002 0.287059,-2.2108 0.732681,-4.03335 1.484579,-6.0718 0.447285,-1.21261 0.594741,-1.54982 1.228795,-2.81006 1.657201,-3.29384 3.641439,-5.92891 6.578447,-8.73618 2.275453,-2.174946 4.735288,-3.807761 7.869443,-5.223656 1.805195,-0.815519 2.551082,-1.072689 4.628234,-1.595732 1.789981,-0.450733 3.044832,-0.653954 4.635343,-0.750686 0.465908,-0.02833 4.482059,-0.04697 10.17682,-0.04723 8.488966,-4.7e-4 9.41439,-0.0076 9.481032,-0.07426 0.06641,-0.06641 0.07385,-0.716319 0.07385,-6.451797 0,-7.027952 -0.01664,-6.61862 0.294554,-7.242747 0.192069,-0.385205 0.624216,-0.825092 1.008598,-1.026668 0.538856,-0.282589 0.616613,-0.288289 3.945068,-0.289187 2.678454,-7.04e-4 3.024268,-0.0091 3.089853,-0.07466 0.06599,-0.06599 0.07385,-0.505537 0.07385,-4.133156 0,-2.828586 0.01604,-4.134811 0.05288,-4.308341 0.125694,-0.591936 0.501623,-1.097286 1.017433,-1.367694 0.616453,-0.323173 0.494189,-0.314653 4.515349,-0.314653 3.532709,0 3.623039,-0.0023 3.670489,-0.0909 0.0782,-0.146137 0.0631,-1.512365 -0.018,-1.628167 -0.0367,-0.05236 -0.29572,-0.261042 -0.57567,-0.463746 -0.72859,-0.527545 -0.814814,-0.595818 -1.521792,-1.204911 -0.652863,-0.562471 -1.617724,-1.551008 -2.186168,-2.239803 l -0.319954,-0.3877 H 96.35553 c -0.551211,0 -3.699107,0.295914 -6.299541,0.592181 -1.098832,0.125189 -1.495893,0.168923 -3.562157,0.392351 -0.718547,0.0777 -1.479849,0.162497 -1.691782,0.188443 -0.211934,0.02594 -0.892871,0.0997 -1.513192,0.163895 -0.62032,0.06419 -1.43449,0.148642 -1.809267,0.187661 -0.374777,0.03902 -1.072637,0.103932 -1.550801,0.144248 -0.478164,0.04032 -1.038012,0.09371 -1.244109,0.118646 -0.56763,0.06868 -2.228496,0.05434 -2.7795,-0.024 -2.369351,-0.336872 -4.206204,-1.276706 -5.892728,-3.015031 -1.645879,-1.696431 -2.711928,-3.80441 -3.080755,-6.091828 -0.119308,-0.739931 -0.141536,-2.218093 -0.04539,-3.018735 0.182834,-1.522591 0.646467,-2.92414 1.373516,-4.152102 0.91673,-1.548336 2.460251,-3.1015 3.918558,-3.943044 1.921818,-1.109023 4.29686,-1.564978 6.787033,-1.302959 2.712581,0.285421 8.670146,0.825606 11.654502,1.056738 0.920391,0.07128 2.069051,0.174258 3.994487,0.358101 0.956327,0.09131 1.865661,0.177335 2.020741,0.191165 l 0.281963,0.02514 0.258467,-0.277697 c 0.142157,-0.152734 0.46994,-0.517059 0.728407,-0.809612 1.198435,-1.356486 2.572838,-2.361551 4.511418,-3.299083 0.83455,-0.403604 1.69309,-0.704698 2.79345,-0.979688 2.68306,-0.670514 4.97545,-0.627533 7.66271,0.143672 1.50386,0.431587 2.73645,1.017252 4.16387,1.978467 1.06338,0.716068 1.93597,1.4836 3.16268,2.781922 l 0.43927,0.464908 0.56976,-0.03124 c 0.54679,-0.02998 0.90241,-0.05958 3.20144,-0.266441 2.39556,-0.215551 5.60332,-0.531499 8.10645,-0.798445 0.71079,-0.0758 1.63069,-0.170498 2.04424,-0.210437 0.41355,-0.03994 1.01625,-0.102843 1.33933,-0.139786 1.94031,-0.221864 2.68452,-0.275878 3.80651,-0.27627 1.20707,-4.23e-4 1.75462,0.06019 2.74915,0.304289 1.33012,0.326476 2.97878,1.158962 4.08847,2.064469 0.48483,0.395618 1.28463,1.223723 1.70846,1.768918 0.61339,0.78903 1.32181,2.108285 1.67133,3.112448 0.5878,1.688702 0.73209,4.129355 0.35309,5.972582 -0.23603,1.147948 -0.83156,2.578098 -1.48722,3.571541 -1.5702,2.379149 -3.85428,4.043923 -6.26156,4.563828 -1.54672,0.334048 -3.01935,0.421541 -4.34902,0.258387 -1.60864,-0.197384 -2.22145,-0.26834 -3.10161,-0.359156 -0.51693,-0.05333 -1.41569,-0.148924 -1.99724,-0.212417 -2.49865,-0.272808 -3.61716,-0.391904 -3.94749,-0.42032 -0.61613,-0.053 -2.64868,-0.257065 -2.81964,-0.283086 -0.16574,-0.02523 -1.49432,-0.163083 -3.61853,-0.375465 -1.62465,-0.162434 -1.56435,-0.166013 -1.82774,0.108484 -0.11907,0.124105 -0.38568,0.424359 -0.59245,0.66723 -1.02652,1.205723 -2.06367,2.122885 -3.37254,2.982372 -0.30409,0.199687 -0.57662,0.4074 -0.60562,0.46158 -0.0357,0.06668 -0.0448,0.333722 -0.0283,0.826337 0.0212,0.63041 0.0358,0.736132 0.10942,0.78994 0.0686,0.05019 0.76111,0.06212 3.60548,0.06212 3.81161,0 3.80138,-6.11e-4 4.30615,0.25795 0.43917,0.22496 0.80327,0.59492 1.03446,1.051114 0.22323,0.440489 0.23564,0.63284 0.24298,3.766285 0.004,1.615417 0.02,3.412936 0.0361,3.994487 l 0.0292,1.057364 2.96062,0.0332 c 1.69531,0.01901 3.09871,0.05476 3.28374,0.08366 0.38532,0.06018 0.72846,0.214593 1.1037,0.496665 0.31835,0.239307 0.56317,0.572941 0.73861,1.006545 0.26134,0.645932 0.25306,0.41349 0.25394,7.132556 8e-4,6.101499 0.002,6.216625 0.0926,6.306717 0.0903,0.09034 0.24591,0.09201 10.02146,0.108044 10.88513,0.01785 10.06438,-0.0025 11.92695,0.296344 0.97853,0.157025 1.42409,0.257536 2.72564,0.614873 2.66578,0.73188 4.35687,1.433814 7.09609,2.945446 1.39723,0.771053 3.1456,2.020143 4.6759,3.340617 1.7801,1.536006 4.00217,4.097106 5.1209,5.902196 0.20024,0.32309 0.43535,0.69746 0.52247,0.83193 0.50602,0.78106 1.48267,2.65169 1.9824,3.79698 0.88298,2.02363 1.78079,5.01473 2.03122,6.76713 0.20291,1.41987 0.20097,1.34493 0.22069,8.5718 0.0121,4.43944 0.0356,6.95819 0.0654,7.01385 0.0438,0.0818 0.14188,0.087 1.70136,0.0902 0.91018,0.002 1.83929,0.0195 2.06467,0.0392 0.91177,0.0799 1.56339,0.65558 1.91995,1.6962 0.0979,0.28565 0.10746,0.42734 0.14779,2.18521 0.0237,1.03387 0.03,4.06692 0.0139,6.7401 -0.0279,4.64458 -0.0332,4.87184 -0.12018,5.11916 -0.22333,0.63541 -0.62604,1.10507 -1.19531,1.39402 l -0.36841,0.187 -18.40016,0.012 c -16.40342,0.0107 -18.43102,0.004 -18.68443,-0.06 -0.81162,-0.2057 -1.4303,-0.77961 -1.73633,-1.61067 -0.0986,-0.26766 -0.0987,-0.27946 -0.0987,-6.82378 0,-6.21396 0.005,-6.57526 0.087,-6.93161 0.21021,-0.90821 0.82401,-1.58454 1.64176,-1.80902 0.25137,-0.069 0.65357,-0.0845 2.89318,-0.11161 1.49224,-0.018 2.6369,-0.0506 2.68491,-0.0762 0.0794,-0.0425 0.0834,-0.26426 0.0774,-4.31078 l -0.006,-4.26599 -0.12326,-0.31684 c -0.2124,-0.54593 -0.56539,-0.88162 -1.1108,-1.05634 -0.19631,-0.0629 -1.25476,-0.0703 -8.91663,-0.0626 -4.78164,0.005 -8.74147,0.0202 -8.79962,0.0342 l -0.10574,0.0254 v 2.59132 c 0,3.51629 -0.0581,4.09065 -0.63502,6.30579 -0.75468,2.89742 -2.2241,6.00035 -3.93142,8.30187 -0.15915,0.21454 -0.36715,0.49581 -0.46222,0.62504 -1.14925,1.56223 -3.67406,3.89324 -5.65397,5.21999 -2.10786,1.41248 -3.82964,2.25527 -6.21154,3.04048 -2.33792,0.77071 -4.336,1.13879 -7.07259,1.30287 -2.86777,0.17195 -6.1841,-0.24052 -9.09333,-1.131 -2.757217,-0.84394 -5.955161,-2.50204 -8.252263,-4.27869 -1.189239,-0.9198 -2.470764,-2.16421 -3.6484,-3.54272 -0.693353,-0.81163 -1.73685,-2.32059 -2.388576,-3.45406 -1.345066,-2.33929 -2.456093,-5.31272 -2.839657,-7.59974 -0.213029,-1.27018 -0.234448,-1.68758 -0.234923,-4.57769 -4.7e-4,-2.22314 -0.01242,-2.76508 -0.06243,-2.80658 -0.04431,-0.0368 -2.53374,-0.0542 -8.729128,-0.061 -9.708887,-0.0108 -8.903932,-0.0389 -9.475924,0.33083 -0.310296,0.20055 -0.529476,0.45313 -0.684274,0.78853 l -0.104745,0.22696 -0.01271,4.28388 c -0.01086,3.66226 -0.003,4.29363 0.05444,4.35103 0.07488,0.0749 1.742038,0.12946 3.953987,0.12946 0.65136,0 1.298194,0.0212 1.437419,0.0471 0.664452,0.12354 1.298462,0.63661 1.625915,1.31576 0.34049,0.70617 0.32026,0.21986 0.307299,7.38722 l -0.0117,6.47084 -0.117029,0.37047 c -0.272941,0.86402 -0.962338,1.52853 -1.762823,1.69922 -0.194687,0.0415 -4.69402,0.0574 -18.233658,0.0644 -9.886355,0.005 -18.102074,-0.003 -18.257154,-0.0184 z m 32.309416,-5.919 c 0.03606,-0.0674 0.04706,-0.98515 0.0369,-3.07983 -0.01255,-2.58884 -0.0238,-2.99015 -0.08496,-3.03145 -0.106972,-0.0723 -27.879849,-0.0254 -28.113585,0.0474 -0.09662,0.0301 -0.200623,0.10135 -0.231117,0.15833 -0.0739,0.13808 -0.05815,5.8521 0.01638,5.9419 0.03976,0.0479 2.824805,0.0596 14.187245,0.0596 h 14.137774 z m 114.441352,-0.49144 c -0.006,-0.31016 -0.0247,-1.68047 -0.0409,-3.04513 -0.0245,-2.06144 -0.0409,-2.49258 -0.0968,-2.54847 -0.0581,-0.0581 -1.9995,-0.0675 -14.177,-0.0686 -11.27042,-0.001 -14.12492,0.0105 -14.18516,0.0578 -0.0949,0.0744 -0.11061,0.71032 -0.0955,3.85543 0.0105,2.17623 0.0136,2.24652 0.10221,2.2792 0.0503,0.0186 6.48433,0.0337 14.29791,0.0337 h 14.20652 z m -70.19193,0.23448 c 1.22494,-0.0886 1.58844,-0.13333 2.29703,-0.28252 1.32087,-0.27811 2.19001,-0.50022 2.70215,-0.69052 0.14216,-0.0528 0.38535,-0.1432 0.54043,-0.20084 0.71181,-0.26455 2.12097,-0.93086 2.91363,-1.37767 0.36988,-0.20849 1.53096,-0.96943 2.14707,-1.40713 0.44557,-0.31653 1.4939,-1.24109 1.96492,-1.73293 1.93993,-2.02564 3.40222,-4.28937 4.23099,-6.54983 0.51477,-1.40405 0.88548,-3.13138 0.98839,-4.60541 0.0651,-0.93311 0.1039,-21.61881 0.0574,-30.616565 l -0.0369,-7.143083 -19.10825,-0.0127 c -16.99999,-0.01129 -19.114761,-0.0049 -19.167192,0.05832 -0.04712,0.05678 -0.05334,3.599404 -0.03104,17.682428 0.01538,9.7132 0.04846,18.26475 0.07375,19.06823 0.04679,1.48629 0.09464,1.9272 0.328948,3.03111 0.355871,1.67665 0.653526,2.51979 1.484826,4.20596 0.739699,1.50038 0.886978,1.74371 1.711149,2.82722 0.114787,0.15091 0.294539,0.38909 0.399448,0.52928 0.427772,0.57166 1.684584,1.83458 2.74918,2.76254 0.389364,0.3394 1.879162,1.35538 2.569715,1.75245 0.202276,0.11631 0.548062,0.31465 0.768412,0.44076 0.22035,0.12611 0.580384,0.30883 0.800084,0.40605 0.2197,0.0972 0.58526,0.26344 0.81237,0.36939 0.67104,0.31305 1.37509,0.56887 2.10126,0.7635 1.16288,0.31167 1.86882,0.44082 3.71252,0.67915 0.14216,0.0184 0.59682,0.0481 1.01037,0.066 0.41355,0.018 0.80733,0.036 0.87507,0.0402 0.0677,0.004 0.5647,-0.0244 1.10435,-0.0634 z M 58.765689,132.73278 c 0.02162,-0.0335 0.04043,-2.1227 0.04179,-4.64275 l 0.0025,-4.58191 0.149944,-0.62457 c 0.310893,-1.29495 0.883863,-2.3582 1.897001,-3.52021 0.241337,-0.27681 0.481091,-0.54068 0.532784,-0.58638 0.404092,-0.35728 1.460671,-1.11959 1.551774,-1.11959 0.01733,0 0.08833,-0.0405 0.157768,-0.0899 0.137824,-0.0981 0.903529,-0.44471 1.204084,-0.54499 0.103387,-0.0345 0.378301,-0.13308 0.610921,-0.2191 l 0.422946,-0.15638 9.006111,-0.0127 c 7.253828,-0.0102 9.015839,-0.0244 9.056098,-0.0729 0.05498,-0.0662 0.06447,-0.78312 0.146391,-11.05198 0.02825,-3.54099 0.0392,-6.5069 0.02433,-6.590902 l -0.02703,-0.15273 -9.290927,6.58e-4 c -5.465624,4.7e-4 -9.619852,0.01958 -10.089825,0.0466 -1.603486,0.09219 -2.695705,0.307594 -4.323444,0.852654 -1.992729,0.66727 -3.947497,1.62643 -5.803469,2.84763 -1.478656,0.97293 -2.284224,1.63436 -3.646507,2.99405 -1.511153,1.50828 -2.040742,2.15151 -3.174443,3.85562 -1.528015,2.29681 -2.418983,4.10597 -2.985016,6.06123 -0.479666,1.65692 -0.693297,2.79616 -0.773058,4.12255 -0.06783,1.12795 -0.106921,13.02715 -0.04319,13.14624 0.04393,0.0821 0.350822,0.0858 7.679471,0.093 6.202094,0.006 7.641086,-0.004 7.673028,-0.0533 z m 115.403351,-0.0306 c 0.0711,-0.0785 0.0781,-0.25002 0.0703,-1.72703 -0.005,-0.90191 -0.004,-3.70169 0.003,-6.22174 0.007,-2.82567 -0.007,-4.82508 -0.0374,-5.21633 -0.0647,-0.84441 -0.31597,-2.38021 -0.47675,-2.91363 -0.0273,-0.0905 -0.11243,-0.40037 -0.18925,-0.6887 -0.23661,-0.88815 -0.61627,-1.94333 -1.14249,-3.17533 -0.66168,-1.54914 -1.77639,-3.38322 -3.07098,-5.05283 -1.24739,-1.60871 -2.79342,-3.08321 -4.52517,-4.31577 -1.97752,-1.40749 -2.54149,-1.74781 -4.11503,-2.48324 -2.38325,-1.113867 -4.20432,-1.680572 -6.45861,-2.009882 l -0.72841,-0.106404 -9.68766,-0.01426 c -8.39539,-0.01235 -9.69671,-0.0052 -9.75553,0.05361 -0.0557,0.05572 -0.0745,0.415685 -0.10476,2.010486 -0.0203,1.06843 -0.0345,2.29154 -0.0315,2.71801 0.041,5.87555 0.11808,12.78942 0.1439,12.89985 l 0.033,0.14098 7.65704,0.0317 c 10.17479,0.0422 10.46889,0.0469 10.94662,0.17737 0.63355,0.17299 0.7857,0.23182 1.65627,0.64047 1.14279,0.53645 2.38642,1.60321 3.0363,2.60449 0.75137,1.15767 1.02962,1.82501 1.2834,3.07811 l 0.13325,0.65791 0.01,4.43651 c 0.005,2.44007 0.0204,4.46493 0.0338,4.49967 0.0202,0.0525 1.3048,0.0632 7.63145,0.0632 7.35027,0 7.60988,-0.003 7.68614,-0.0872 z M 118.51083,83.386388 c 0.0619,-0.03149 0.0723,-0.661759 0.085,-5.154941 l 0.0145,-5.119058 -0.15549,-0.02419 c -0.0855,-0.0133 -1.90015,-0.03476 -4.0325,-0.04767 -2.13235,-0.01291 -3.88229,-0.02437 -3.88875,-0.02545 -0.006,-0.0011 -0.0117,-1.206627 -0.0117,-2.678976 0,-2.623856 -0.002,-2.677998 -0.0935,-2.727022 -0.14034,-0.07511 -3.31863,-0.03754 -3.39635,0.04015 -0.0446,0.04454 -0.062,0.681521 -0.0743,2.711044 l -0.016,2.652833 -3.62599,4.7e-4 c -2.49419,4.7e-4 -3.758014,0.01755 -4.048945,0.05537 -0.28108,0.03654 -1.077585,0.05034 -2.374642,0.04113 -1.686397,-0.01197 -1.959629,-0.0043 -2.010021,0.05642 -0.04582,0.0552 -0.05559,1.15264 -0.04555,5.116069 0.007,2.775191 0.03033,5.072942 0.05177,5.106119 0.0316,0.04889 2.266514,0.05779 11.795478,0.04699 6.46607,-0.0073 11.78821,-0.02947 11.82698,-0.04921 z m -8.26796,-21.725265 c 0.24391,-0.03944 0.67429,-0.144785 0.95641,-0.234107 0.28213,-0.08932 0.54164,-0.162402 0.57669,-0.162402 0.0351,0 0.25603,-0.07514 0.49105,-0.166974 0.57313,-0.223955 1.09656,-0.520929 1.91905,-1.088798 0.79881,-0.551515 1.96684,-1.971691 2.54034,-3.088733 0.86878,-1.692159 1.11336,-2.763812 1.06579,-4.669809 -0.021,-0.841236 -0.0431,-1.060559 -0.16446,-1.631315 -0.47933,-2.254355 -1.28071,-3.578713 -3.11139,-5.141887 -1.11032,-0.94807 -1.98541,-1.436444 -3.21909,-1.796519 -3.1792,-0.927915 -6.77042,-6.9e-4 -8.97799,2.318041 -0.93214,0.979078 -1.70348,2.294282 -2.21157,3.770946 -0.341537,0.992589 -0.496838,2.684411 -0.349878,3.811535 0.03033,0.23262 0.07352,0.572235 0.09598,0.754701 0.09346,0.759134 0.446658,1.78645 0.920048,2.676087 0.56845,1.068311 1.81445,2.481075 2.64817,3.002618 0.12814,0.08016 0.38611,0.249155 0.57326,0.37554 0.91152,0.615551 2.66973,1.261367 3.70693,1.361612 0.41514,0.04012 2.10499,-0.02009 2.54065,-0.09054 z M 94.436705,56.645572 c 0.05721,-0.05721 0.05671,-0.104786 -0.0036,-0.343594 -0.147368,-0.583679 -0.306964,-1.765159 -0.404965,-2.997917 -0.136414,-1.71596 0.01178,-3.097949 0.518484,-4.835224 0.07687,-0.263539 0.09242,-0.380168 0.05561,-0.416979 -0.03643,-0.03644 -2.780548,-0.05282 -9.559249,-0.05707 l -9.508157,-0.006 -0.243536,0.100013 c -0.592688,0.243398 -1.267681,0.828495 -1.670645,1.448147 -0.255788,0.393336 -0.6172,1.158978 -0.73328,1.553441 -0.284896,0.968132 -0.241051,1.949087 0.129177,2.890129 0.288412,0.733081 0.512968,1.096643 0.99303,1.607738 0.674368,0.717969 1.150421,0.992358 1.9471,1.122275 0.129835,0.02117 4.326016,0.03015 9.324834,0.01995 7.74991,-0.01581 9.098548,-0.02832 9.155171,-0.08494 z m 47.687925,-0.167534 c 0.45656,-0.223518 0.56153,-0.299711 0.93877,-0.681412 0.61338,-0.62064 0.96675,-1.13527 1.151,-1.676225 0.0827,-0.242897 0.1696,-0.47748 0.19304,-0.521296 0.0683,-0.127646 0.18504,-0.996343 0.18504,-1.37712 0,-0.741174 -0.13594,-1.329624 -0.45681,-1.977456 -0.47301,-0.954972 -1.12221,-1.623813 -2.03387,-2.095395 l -0.30546,-0.158007 -9.3518,-0.01604 c -7.6802,-0.01317 -9.36654,-0.005 -9.4343,0.04584 -0.0784,0.05882 -0.0778,0.07813 0.0127,0.390836 0.13193,0.455615 0.30015,1.197067 0.44526,1.962481 0.11616,0.612707 0.12226,0.720006 0.11625,2.044237 -0.007,1.459448 -0.0559,1.990524 -0.27147,2.924892 -0.0507,0.219697 -0.10581,0.484038 -0.12251,0.587425 -0.0167,0.103387 -0.0545,0.287129 -0.084,0.408315 -0.0659,0.270954 -0.0128,0.355459 0.23648,0.37621 0.095,0.0079 4.244,0.01437 9.2201,0.01437 h 9.04744 z"
             id="path1138" /></g><path
           style="fill:#ffffff;stroke:none;stroke-width:43.645;stroke-linecap:round"
           d="m 2273.2084,1908.264 c -0.8001,-2.6464 -3.1598,-12.1732 -5.2438,-21.1709 l -3.789,-16.3593 h 141.243 c 104.7233,0 142.4372,1.1943 145.862,4.6191 7.2251,7.2251 5.4369,21.2639 -3.8052,29.8742 -8.1389,7.5825 -12.903,7.8485 -140.6183,7.8485 -102.4132,0 -132.5217,-1.084 -133.6487,-4.8116 z"
           id="path1487"
           transform="translate(4.41,5.435)" /><path
           style="fill:#ffffff;stroke:none;stroke-width:43.645;stroke-linecap:round"
           d="m 1506.8051,1903.6274 c -10.6229,-10.6229 -11.5212,-16.3679 -4.0899,-26.1574 4.7069,-6.2004 16.3641,-6.7362 146.5774,-6.7362 h 141.4638 l -2.5582,14.4347 c -5.4536,30.7715 8.8371,27.9071 -139.2304,27.9071 h -132.7146 z"
           id="path1661"
           transform="translate(4.41,5.435)" /><path
           style="fill:#ffffff;stroke:none;stroke-width:43.645;stroke-linecap:round"
           d="m 1884.7927,1974.7091 c -14.7629,-73.8147 27.0739,-149.6699 95.5402,-173.2258 43.1622,-14.8499 97.7676,-7.3245 124.4795,17.1552 11.8692,10.8773 14.0229,15.3362 14.0229,29.0324 0,12.9256 -2.1555,18.0356 -10.7126,25.3961 -15.5241,13.3532 -26.9871,11.7167 -46.9738,-6.7065 -17.1749,-15.8312 -17.4078,-15.9095 -41.2934,-13.8803 -43.7172,3.7139 -74.9649,23.2632 -102.873,64.3597 -8.0897,11.9125 -18.0767,32.6314 -22.1936,46.0419 -7.2793,23.7126 -7.5541,24.0377 -9.9962,11.8273 z"
           id="path1700"
           transform="translate(4.41,5.435)" /><path
           style="fill:#ffffff;stroke:none;stroke-width:43.645;stroke-linecap:round"
           d="m 2906.3827,2837.6525 c -3.0648,-1.0486 -18.1568,-10.1217 -33.5379,-20.1626 -15.381,-10.0408 -43.1862,-24.0628 -61.7894,-31.1599 l -33.824,-12.9038 -166.4799,-1.1739 -166.4799,-1.1739 v -32.7097 -32.7098 l 176.103,1.143 176.103,1.1431 30.794,10.7752 c 77.7352,27.2007 121.2513,57.721 121.2513,85.0406 0,7.1691 -3.0313,16.7149 -6.7362,21.2128 -7.3093,8.8738 -26.4699,15.7356 -35.404,12.6789 z"
           id="path1739"
           transform="translate(4.41,5.435)" /><path
           style="fill:#ffffff;stroke:none;stroke-width:21.8225;stroke-linecap:round"
           d="m 1870.0923,2350.6066 c -0.7057,-0.7057 -1.2831,-16.7282 -1.2831,-35.6056 v -34.3224 h 158.5755 c 142.8247,0 158.6916,0.3024 159.7438,3.0443 1.5222,3.967 1.5222,61.1555 0,65.1224 -1.0521,2.7417 -16.806,3.0444 -158.4607,3.0444 -86.5108,0 -157.8698,-0.5774 -158.5755,-1.2831 z"
           id="path1778"
           transform="translate(4.41,5.435)" /><path
           style="fill:#ffffff;stroke:none;stroke-width:21.8225;stroke-linecap:round"
           d="m 1761.1089,2737.5474 c -11.6236,-9.7806 -11.3901,-7.7864 -11.7793,-100.5869 -0.1962,-46.7731 0.2617,-85.6618 1.0175,-86.4194 1.8702,-1.8748 36.2861,-3.02 44.4923,-1.4805 l 6.608,1.2397 v 86.7748 c 0,85.4645 -0.062,86.876 -4.1427,93.4778 -7.6753,12.4189 -25.6267,15.8878 -36.1958,6.9945 z"
           id="path1817"
           transform="translate(4.41,5.435)" /><path
           style="fill:#ffffff;stroke:none;stroke-width:21.8225;stroke-linecap:round"
           d="m 955.18756,3056.5995 c 2.48036,-60.4242 18.51705,-109.9335 54.30814,-167.6632 18.5876,-29.981 37.6127,-53.6146 62.8097,-78.024 51.8255,-50.2056 116.0135,-85.3965 186.435,-102.2127 13.1377,-3.1371 29.1798,-3.4952 183.2836,-4.0906 l 168.8857,-0.6525 v 33.7505 33.7505 h -151.3223 -151.3223 l -23.5327,4.7649 c -12.943,2.6206 -31.2395,7.4365 -40.6589,10.7019 -24.6968,8.5616 -64.2891,28.8412 -85.4503,43.7685 -24.6427,17.3831 -68.7482,61.6141 -84.3061,84.5459 -30.9831,45.668 -55.0117,108.3468 -59.6922,155.7071 l -1.3107,13.263 -29.65188,0.5329 -29.65185,0.5329 z"
           id="path1856"
           transform="translate(4.41,5.435)" /><path
           style="fill:#ffffff;stroke:none;stroke-width:21.8225;stroke-linecap:round"
           d="m 892.54405,3376.2731 -36.08669,-0.5688 v -11.2647 c 0,-11.0767 0.10035,-11.2847 6.01445,-12.4676 3.30795,-0.6615 107.67065,-1.2028 231.91709,-1.2028 h 225.9027 v 10.428 c 0,5.7354 -0.5257,11.7979 -1.1682,13.4723 -1.0562,2.7523 -19.8439,3.0025 -195.8305,2.6083 -107.0642,-0.2398 -210.90117,-0.6919 -230.74885,-1.0047 z"
           id="path1895"
           transform="translate(4.41,5.435)" /><path
           style="fill:#ffffff;stroke:none;stroke-width:21.8225;stroke-linecap:round"
           d="m 2735.2829,3364.7227 0.5691,-12.9912 232.4903,-0.4889 232.4903,-0.4889 -0.5732,12.0366 -0.5732,12.0366 -45.2286,1.1867 c -24.8758,0.6526 -129.4946,1.3022 -232.4862,1.4435 l -187.2576,0.2568 z"
           id="path1934"
           transform="translate(4.41,5.435)" /></g><path
         style="fill:#ffffff;stroke:none;stroke-width:61.7234;stroke-linecap:round"
         d="m 1977.4083,3289.3623 c -24.7006,-1.0087 -44.9102,-2.6657 -44.9102,-3.6822 0,-1.0166 8.5421,-66.2371 18.9825,-144.9345 l 18.9824,-143.0861 -12.1778,-8.3736 c -85.2589,-58.6251 -77.5815,-177.4762 14.5296,-224.9297 25.6575,-13.2181 73.8975,-14.6039 101.8472,-2.9258 27.0845,11.3167 57.9077,39.8641 71.2979,66.0339 13.5467,26.4755 14.8883,72.8917 2.9339,101.5027 -8.4249,20.1637 -37.8821,53.9555 -55.3707,63.5185 -10.202,5.5786 -9.9737,9.1217 9.6187,149.2378 11.0379,78.9379 20.0274,145.3608 19.9766,147.6063 -0.089,3.9207 -50.2257,3.9319 -145.7101,0.033 z"
         id="path2104"
         transform="translate(4.41,5.435)" /></g></g><g
     inkscape:groupmode="layer"
     id="layer3"
     inkscape:label="Pipes"><text
       xml:space="preserve"
       style="font-size:682.667px;font-family:Lato;-inkscape-font-specification:Lato;fill:url(#linearGradient16686);fill-opacity:1;stroke:none"
       x="906.71582"
       y="1525.5962"
       id="text10662"><tspan
         sodipodi:role="line"
         id="tspan10660"
         x="906.71582"
         y="1525.5962"
         style="font-size:682.667px;fill:url(#linearGradient16686);fill-opacity:1;stroke:none">tapLock</tspan></text></g></svg>
